<svg id="building-9" viewBox="0 0 24 24">
    <path d="M20.987 2.436a.44.44 0 0 0-.013-.063.487.487 0 0 0-.121-.226l-2-2A.496.496 0 0 0 18.5 0h-13a.504.504 0 0 0-.354.146l-2 2a.492.492 0 0 0-.133.29C3.01 2.458 3 2.478 3 2.5v21a.5.5 0 0 0 .5.5h17a.5.5 0 0 0 .5-.5v-21c0-.022-.01-.042-.013-.064zM5.707 1h12.586l1 1H4.707l1-1zM11 23v-3h2v3h-2zm9 0h-6v-3.5a.5.5 0 0 0-.5-.5h-3a.5.5 0 0 0-.5.5V23H4V3h16v20z"></path>
    <path d="M10.5 18h3a.5.5 0 0 0 .5-.5v-3a.5.5 0 0 0-.5-.5h-3a.5.5 0 0 0-.5.5v3a.5.5 0 0 0 .5.5zm.5-3h2v2h-2v-2zM15.5 18h3a.5.5 0 0 0 .5-.5v-3a.5.5 0 0 0-.5-.5h-3a.5.5 0 0 0-.5.5v3a.5.5 0 0 0 .5.5zm.5-3h2v2h-2v-2zM5.5 18h3a.5.5 0 0 0 .5-.5v-3a.5.5 0 0 0-.5-.5h-3a.5.5 0 0 0-.5.5v3a.5.5 0 0 0 .5.5zm.5-3h2v2H6v-2zM10.5 13h3a.5.5 0 0 0 .5-.5v-3a.5.5 0 0 0-.5-.5h-3a.5.5 0 0 0-.5.5v3a.5.5 0 0 0 .5.5zm.5-3h2v2h-2v-2zM15.5 13h3a.5.5 0 0 0 .5-.5v-3a.5.5 0 0 0-.5-.5h-3a.5.5 0 0 0-.5.5v3a.5.5 0 0 0 .5.5zm.5-3h2v2h-2v-2zM5.5 13h3a.5.5 0 0 0 .5-.5v-3a.5.5 0 0 0-.5-.5h-3a.5.5 0 0 0-.5.5v3a.5.5 0 0 0 .5.5zm.5-3h2v2H6v-2zM10.5 8h3a.5.5 0 0 0 .5-.5v-3a.5.5 0 0 0-.5-.5h-3a.5.5 0 0 0-.5.5v3a.5.5 0 0 0 .5.5zm.5-3h2v2h-2V5zM15.5 8h3a.5.5 0 0 0 .5-.5v-3a.5.5 0 0 0-.5-.5h-3a.5.5 0 0 0-.5.5v3a.5.5 0 0 0 .5.5zm.5-3h2v2h-2V5zM5.5 8h3a.5.5 0 0 0 .5-.5v-3a.5.5 0 0 0-.5-.5h-3a.5.5 0 0 0-.5.5v3a.5.5 0 0 0 .5.5zM6 5h2v2H6V5z"></path>
    <g>
        <path fill="none" d="M0 0h24v24H0z"></path>
    </g>
</svg>
